<svg width="169" height="50" viewBox="0 0 169 50" fill="none" xmlns="http://www.w3.org/2000/svg">
<path fill-rule="evenodd" clip-rule="evenodd" d="M23.9458 0C20.287 0.152785 16.7069 1.10879 13.4601 2.8L23.9458 20.9333V0ZM23.9458 29.0717L13.4634 47.2C16.7092 48.8907 20.2881 49.8467 23.9458 50V29.0717ZM26.124 50V29.0533L36.6164 47.1983C33.3676 48.8904 29.7851 49.8481 26.124 50ZM26.124 20.95V0C29.898 0.16 33.4566 1.155 36.618 2.80333L26.124 20.95ZM3.89749 38.445L22.0646 27.9717L11.5756 46.1117C8.48855 44.1438 5.86831 41.5275 3.89749 38.445ZM46.1773 11.5583L28.0169 22.0267L38.5042 3.89333C41.5899 5.86111 44.2073 8.47682 46.1773 11.5583ZM3.89582 11.5567C5.86668 8.47423 8.48691 5.85792 11.574 3.89L22.063 22.03L3.89582 11.5567ZM2.80419 13.44C1.10955 16.6839 0.152094 20.2611 0 23.9167H20.9763L2.80419 13.44ZM2.80419 36.5617C1.1105 33.3197 0.153068 29.745 0 26.0917H20.968L2.80586 36.5617H2.80419ZM29.1001 23.9167H50.0731C49.9208 20.2616 48.9633 16.6851 47.2689 13.4417L29.1001 23.9167ZM47.2689 36.56L29.1085 26.0933H50.0731C49.9196 29.7455 48.9622 33.3191 47.2689 36.56ZM28.0169 27.975L38.5008 46.1083C41.5871 44.1407 44.2067 41.525 46.1773 38.4433L28.0169 27.975Z" fill="url(#paint0_linear_130_39503)"/>
<path d="M80.2641 13.2184H86.314V35.6429C86.314 41.4092 81.6391 46.0771 75.91 46.0771H68.2559L68.9434 39.9905H75.0392C77.7433 39.9905 79.9432 37.9768 80.2182 35.3225C78.9349 35.9174 77.4683 36.2836 75.9558 36.2836C70.2267 36.2836 65.5976 31.6156 65.5976 25.8951V13.2184H71.6934V25.8951C71.6934 28.2748 73.5725 30.1969 75.9558 30.1969C78.3391 30.1969 80.2641 28.2748 80.2641 25.8951V13.2184Z" fill="white"/>
<path d="M100.469 30.1969C102.21 30.1969 103.815 29.3732 104.823 28.046C106.473 28.9613 108.673 30.1969 110.139 31.0207C108.077 34.1784 104.502 36.2836 100.469 36.2836C94.0522 36.2836 88.8273 31.0664 88.8273 24.6595C88.8273 18.2525 94.0522 13.0811 100.469 13.0811C104.319 13.0811 107.71 14.9575 109.819 17.8406C110.781 19.122 111.469 20.5864 111.789 22.1882L105.969 24.7968L96.848 28.8698C97.8563 29.6935 99.0938 30.1969 100.469 30.1969ZM100.469 19.122C97.4438 19.122 94.9688 21.5475 94.923 24.5222L104.044 20.4492C103.081 19.6254 101.798 19.122 100.469 19.122Z" fill="white"/>
<path d="M120.391 5.57579V29.2359C120.391 29.6478 120.711 30.0139 121.17 30.0139H122.178V36.1005H118.42C116.128 36.1005 114.295 34.2699 114.295 31.9817V5.57579H120.391Z" fill="white"/>
<path d="M130.775 5.57579V29.2359C130.775 29.6478 131.095 30.0139 131.554 30.0139H132.562V36.1005H128.804C126.512 36.1005 124.679 34.2699 124.679 31.9817V5.57579H130.775Z" fill="white"/>
<path d="M145.541 36.2836C139.124 36.2836 133.899 31.0664 133.899 24.6595C133.899 18.2525 139.124 13.0811 145.541 13.0811C151.957 13.0811 157.136 18.2525 157.136 24.6595C157.136 31.0664 151.957 36.2836 145.541 36.2836ZM145.541 19.122C142.47 19.122 139.995 21.5933 139.995 24.6595C139.995 27.7257 142.47 30.1969 145.541 30.1969C148.565 30.1969 151.086 27.7257 151.086 24.6595C151.086 21.5933 148.565 19.122 145.541 19.122Z" fill="white"/>
<path d="M163.714 39.8074C162.553 39.8074 161.591 39.5481 160.827 39.0294C160.063 38.5107 159.498 37.8395 159.131 37.0158C158.764 36.192 158.581 35.3378 158.581 34.453C158.581 32.775 159.116 31.4936 160.185 30.6088C161.255 29.6935 162.538 29.2359 164.035 29.2359C165.563 29.2359 166.77 29.6935 167.656 30.6088C168.542 31.5241 168.985 32.7445 168.985 34.2699C168.985 36.2225 168.45 37.626 167.381 38.4802C166.342 39.365 165.12 39.8074 163.714 39.8074Z" fill="white"/>
<path d="M163.729 39.8075C162.568 39.8075 161.606 39.5482 160.842 39.0295C160.078 38.5109 159.513 37.8396 159.146 37.0159C158.779 36.1921 158.596 35.3379 158.596 34.4531C158.596 32.7751 159.131 31.4937 160.2 30.6089C161.27 29.6936 162.553 29.236 164.05 29.236C165.578 29.236 166.785 29.6936 167.671 30.6089C168.557 31.5242 169 32.7446 169 34.27C169 36.2226 168.465 37.6261 167.396 38.4803C166.357 39.3651 165.135 39.8075 163.729 39.8075Z" fill="url(#paint1_linear_130_39503)"/>
<defs>
<linearGradient id="paint0_linear_130_39503" x1="84.5" y1="0" x2="84.5" y2="50" gradientUnits="userSpaceOnUse">
<stop stop-color="#FFCE00"/>
<stop offset="0.5" stop-color="#FF6600"/>
<stop offset="1" stop-color="#FF0066"/>
</linearGradient>
<linearGradient id="paint1_linear_130_39503" x1="84.5" y1="0" x2="84.5" y2="50" gradientUnits="userSpaceOnUse">
<stop stop-color="#FFCE00"/>
<stop offset="0.5" stop-color="#FF6600"/>
<stop offset="1" stop-color="#FF0066"/>
</linearGradient>
</defs>
</svg>
